<svg t="1745218383340" class="icon" viewBox="0 0 1024 1024" version="1.1" xmlns="http://www.w3.org/2000/svg" p-id="5779" width="256" height="256"><path d="M170.667 46.545h263.757v574.061H46.545v-449.94a124.121 124.121 0 0 1 124.122-124.12z" fill="#C2F89D" p-id="5780"></path><path d="M46.545 713.697h387.88v263.758H170.666A124.121 124.121 0 0 1 46.545 853.333V713.697z m480.97-667.152h325.818a124.121 124.121 0 0 1 124.122 124.122v449.94h-449.94V46.544z" fill="#EDF1F4" p-id="5781"></path><path d="M527.515 713.697h449.94v139.636a124.121 124.121 0 0 1-124.122 124.122H527.515V713.697z" fill="#82E4FC" p-id="5782"></path><path d="M374.52 662.606l-234.884-131.74 736.8-375.714L735.588 870.99 451.305 706.9 428.87 824.118z" fill="#0085FE" p-id="5783"></path><path d="M832.838 205.08L374.52 662.62l52.286 162.273L449.21 705.49z" fill="#0355ED" p-id="5784"></path><path d="M498.393 733.975l-71.571 90.92 22.388-119.406z" fill="#0E24C0" p-id="5785"></path></svg>