<?xml version="1.0" encoding="UTF-8"?>
<svg width="24" height="24" viewBox="0 0 24 24" fill="none" xmlns="http://www.w3.org/2000/svg">
  <circle cx="12" cy="12" r="12" fill="rgba(0, 0, 0, 0.6)"/>
  <path d="M17 9C17 8.45 16.55 8 16 8H15L14 7H10L9 8H8C7.45 8 7 8.45 7 9V15C7 15.55 7.45 16 8 16H16C16.55 16 17 15.55 17 15V9ZM12 15C10.34 15 9 13.66 9 12C9 10.34 10.34 9 12 9C13.66 9 15 10.34 15 12C15 13.66 13.66 15 12 15Z" fill="white"/>
  <circle cx="12" cy="12" r="2" fill="rgba(0, 0, 0, 0.6)"/>
</svg> 